<?xml version="1.0" standalone="no"?>
<!DOCTYPE svg PUBLIC "-//W3C//DTD SVG 20010904//EN"
 "http://www.w3.org/TR/2001/REC-SVG-20010904/DTD/svg10.dtd">
<svg version="1.0" xmlns="http://www.w3.org/2000/svg"
 width="348.000000pt" height="348.000000pt" viewBox="0 0 348.000000 348.000000"
 preserveAspectRatio="xMidYMid meet">
<metadata>
Created by potrace 1.14, written by Peter Selinger 2001-2017
</metadata>
<g transform="translate(0.000000,348.000000) scale(0.100000,-0.100000)"
fill="#000000" stroke="none">
<path d="M2349 3394 c-32 -35 -124 -99 -231 -163 -143 -86 -284 -220 -405
-387 l-20 -27 -23 38 c-51 83 -143 186 -227 256 -119 99 -220 196 -245 237
-11 18 -24 30 -28 25 -34 -36 -52 -296 -30 -433 17 -103 31 -275 28 -333 l-3
-57 -55 29 c-72 38 -139 57 -285 81 -66 11 -171 32 -234 46 -62 13 -116 22
-119 20 -3 -3 22 -38 54 -78 129 -158 354 -467 354 -486 0 -6 -10 -14 -22 -17
-40 -13 -220 -93 -323 -145 -54 -27 -105 -50 -112 -50 -7 0 -13 -7 -13 -15 0
-16 92 -66 175 -96 65 -23 258 -111 313 -142 l42 -24 -47 -44 c-27 -25 -75
-63 -108 -86 -59 -40 -153 -129 -144 -136 2 -2 36 -21 74 -42 39 -21 107 -60
152 -87 l82 -49 -19 -37 c-10 -20 -31 -66 -45 -102 -15 -36 -36 -80 -48 -99
-20 -33 -20 -34 -2 -47 14 -11 50 -12 168 -7 l150 6 -16 -24 c-9 -13 -25 -51
-35 -84 -11 -33 -23 -68 -27 -77 -6 -16 -1 -18 42 -18 28 0 72 7 99 15 83 25
108 21 137 -24 34 -51 100 -104 170 -136 55 -26 57 -28 57 -66 0 -37 -2 -39
-30 -39 -30 0 -280 -61 -408 -100 -60 -18 -78 -29 -106 -64 -40 -49 -130 -221
-122 -234 9 -15 82 -22 386 -37 362 -19 616 -19 950 0 331 19 415 26 431 36
11 6 7 23 -20 76 -62 126 -111 191 -156 208 -68 24 -245 72 -355 95 -58 13
-111 24 -117 26 -8 2 -13 19 -12 41 0 36 2 39 61 67 36 17 84 52 119 87 63 63
56 62 167 27 36 -11 67 -16 72 -12 8 9 -3 148 -16 191 -7 26 -21 27 151 -7 55
-10 111 -22 124 -26 22 -7 23 -5 17 22 -4 16 -28 65 -53 109 -86 150 -103 180
-103 185 -1 21 173 124 253 149 20 7 37 16 37 20 0 10 -53 58 -130 118 -36 28
-74 61 -85 73 -11 13 -37 35 -57 50 l-36 27 54 33 c30 18 97 50 149 71 119 47
195 90 263 147 61 52 59 61 -26 87 -31 9 -97 29 -147 45 -49 15 -116 35 -147
44 -58 17 -148 63 -147 74 0 4 25 26 55 50 56 45 137 151 181 237 35 69 124
177 186 227 29 22 52 46 52 52 0 24 -103 16 -309 -24 -120 -23 -249 -41 -297
-43 l-84 -2 2 80 c1 44 15 163 31 265 41 252 51 460 23 460 -4 0 -18 -12 -32
-26z m26 -131 c-4 -65 -16 -172 -27 -238 -31 -189 -47 -316 -48 -372 0 -52 0
-52 35 -59 45 -8 186 9 380 47 83 17 176 33 209 36 l59 6 -84 -85 c-61 -61
-99 -112 -139 -182 -66 -118 -140 -209 -209 -256 -27 -19 -50 -38 -51 -42 -1
-16 131 -78 215 -103 50 -14 101 -29 115 -35 14 -5 65 -21 113 -35 88 -26 89
-26 71 -46 -39 -43 -159 -112 -272 -157 -65 -26 -144 -65 -177 -86 l-59 -39
25 -16 c13 -9 53 -43 90 -76 36 -33 95 -82 132 -110 66 -50 79 -65 54 -65 -44
0 -267 -140 -267 -168 0 -15 49 -109 80 -152 22 -32 72 -131 68 -135 -2 -2
-37 3 -78 11 -130 25 -201 35 -210 29 -4 -3 -2 -26 6 -52 8 -25 14 -72 14
-103 l0 -57 -62 19 c-35 11 -69 22 -76 24 -11 3 -9 11 6 36 11 18 31 60 45 93
14 33 41 86 61 119 19 32 43 82 52 110 9 28 25 57 36 64 38 27 62 93 63 167 0
59 -5 78 -30 124 -18 33 -47 67 -72 85 l-43 30 0 167 c0 191 -15 395 -35 485
-23 103 -62 172 -139 250 -147 147 -358 205 -583 158 -256 -53 -433 -218 -499
-464 -14 -52 -18 -110 -18 -285 -1 -121 2 -274 7 -340 l7 -120 -28 -16 c-16
-9 -39 -38 -52 -65 -55 -112 -16 -271 78 -320 52 -28 129 -127 153 -198 10
-28 17 -51 16 -52 -10 -5 -164 -34 -182 -34 -29 0 -29 0 -10 47 8 19 15 43 15
52 0 9 11 33 25 53 14 20 25 39 25 42 0 4 -75 6 -166 6 -129 0 -165 3 -161 13
45 104 101 224 108 231 5 6 9 15 9 22 0 13 -157 113 -249 159 l-53 27 38 40
c22 22 66 58 99 81 76 52 155 125 155 144 0 14 -246 138 -335 169 -65 23 -185
77 -185 83 1 9 314 156 397 186 40 15 73 33 73 40 0 13 -54 91 -164 240 -107
145 -128 173 -185 242 -48 58 -52 65 -30 61 23 -5 193 -39 379 -75 47 -9 124
-33 171 -54 48 -22 92 -39 99 -39 16 0 7 282 -11 350 -17 64 -18 396 -1 435
13 28 14 29 24 10 18 -34 68 -83 205 -201 98 -85 151 -139 208 -216 42 -57 82
-103 89 -103 7 0 43 38 81 85 131 164 220 242 385 342 52 32 120 78 150 102
30 25 59 45 63 45 4 1 5 -52 2 -116z m-403 -642 c179 -51 307 -174 361 -346
26 -83 38 -216 44 -503 l6 -272 -37 15 c-40 17 -141 17 -141 0 0 -5 23 -8 50
-7 124 6 204 -104 192 -263 -9 -117 -73 -251 -160 -335 -47 -45 -52 -86 -5
-43 60 54 -42 -108 -108 -173 -164 -158 -502 -179 -708 -42 -51 34 -116 112
-140 170 -15 34 -15 36 4 31 31 -8 25 3 -40 70 -35 35 -75 90 -93 127 -27 55
-32 75 -32 140 0 170 78 252 226 238 62 -6 69 16 8 26 -76 12 -132 -6 -190
-61 l-36 -34 -6 58 c-3 32 -11 158 -18 280 -18 324 3 506 74 633 98 177 263
282 492 314 57 8 190 -4 257 -23z m479 -1093 c71 -71 92 -196 47 -281 l-23
-42 -6 85 c-6 81 -32 158 -59 175 -13 8 -13 95 -1 95 5 0 24 -15 42 -32z
m-1300 -165 c1 -32 0 -62 -1 -68 -10 -42 -10 -158 0 -189 15 -48 7 -56 -26
-25 -82 75 -87 233 -11 317 11 12 24 22 29 22 4 0 9 -26 9 -57z m649 -818 c63
0 134 4 158 8 l42 9 0 -47 c0 -45 -1 -46 -47 -67 -65 -29 -192 -36 -265 -14
-71 20 -88 37 -88 87 l0 39 43 -7 c23 -5 94 -8 157 -8z m-235 -116 c-17 -48
-41 -184 -51 -286 l-7 -73 -78 0 c-47 0 -79 4 -79 10 0 14 71 192 105 263 14
32 24 63 22 70 -5 13 -77 -135 -123 -252 -15 -40 -35 -76 -43 -79 -18 -7 -361
15 -370 23 -8 8 76 167 111 210 21 25 45 38 100 55 118 36 371 99 400 100 l27
0 -14 -41z m629 11 c250 -64 311 -84 343 -114 18 -17 54 -73 82 -124 47 -88
49 -92 28 -97 -52 -10 -360 -26 -366 -18 -4 4 -27 58 -51 118 -50 128 -85 201
-100 210 -16 10 -12 -12 10 -55 11 -21 42 -92 69 -158 l49 -120 -37 -6 c-20
-3 -57 -6 -83 -6 l-48 0 0 41 c0 65 -30 248 -50 308 l-18 53 49 -6 c26 -4 82
-15 123 -26z m-399 -35 c102 0 127 3 167 22 l46 21 11 -26 c17 -40 39 -166 47
-263 l6 -86 -68 -6 c-88 -9 -333 -9 -410 -1 l-59 6 6 97 c8 109 15 153 36 228
l14 53 42 -23 c37 -19 57 -22 162 -22z"/>
<path d="M1647 2509 c-130 -17 -320 -98 -347 -149 -19 -35 -12 -77 17 -100 34
-26 61 -22 153 21 187 88 322 90 597 7 96 -29 104 -30 126 -15 54 35 42 102
-25 141 -65 38 -213 84 -308 95 -95 12 -116 12 -213 0z m372 -58 c153 -51 191
-80 179 -138 -5 -26 -50 -22 -193 16 -141 39 -281 50 -377 32 -35 -7 -102 -30
-151 -52 -118 -53 -167 -51 -167 8 0 44 91 103 223 143 93 28 101 29 252 26
126 -3 149 -7 234 -35z"/>
<path d="M1991 2200 c-135 -28 -213 -137 -214 -299 0 -102 21 -159 76 -208 46
-40 92 -53 187 -53 121 1 217 57 266 156 24 48 26 63 22 132 -5 88 -28 141
-85 198 -63 64 -161 92 -252 74z m157 -35 c92 -39 162 -151 162 -258 -1 -172
-185 -288 -372 -233 -103 30 -143 102 -136 245 6 124 51 201 143 242 51 22
153 24 203 4z"/>
<path d="M2039 1923 c-28 -7 -31 -43 -6 -64 25 -21 37 -24 37 -9 0 6 7 10 15
10 20 0 19 34 -1 54 -16 16 -17 17 -45 9z"/>
<path d="M1363 2182 c-128 -46 -183 -126 -183 -267 0 -131 40 -214 123 -257
34 -17 54 -20 127 -16 72 3 94 9 134 32 139 81 182 309 84 439 -56 72 -186
104 -285 69z m165 -18 c28 -9 65 -30 82 -47 54 -53 65 -83 65 -177 0 -73 -4
-93 -28 -143 -45 -91 -125 -137 -236 -137 -138 1 -211 91 -211 260 0 123 69
214 187 246 64 17 82 17 141 -2z"/>
<path d="M1411 1914 c-21 -24 2 -68 32 -60 12 3 28 6 34 6 8 0 11 9 9 23 -3
12 -5 28 -5 35 -1 17 -53 14 -70 -4z"/>
<path d="M1662 1743 c-19 -37 -46 -171 -46 -233 -1 -81 18 -128 58 -145 40
-17 80 -2 105 38 17 29 51 138 51 166 0 23 -20 10 -26 -16 -34 -157 -91 -213
-144 -145 -20 25 -22 35 -17 122 3 52 14 123 25 157 19 59 14 96 -6 56z"/>
<path d="M1220 1632 c0 -11 50 -57 80 -73 41 -22 167 -16 218 10 23 12 42 26
42 31 0 14 -7 13 -34 -5 -12 -8 -49 -20 -80 -26 -75 -13 -141 1 -185 42 -34
31 -41 34 -41 21z"/>
<path d="M2215 1615 c-41 -33 -123 -49 -219 -41 -63 4 -77 3 -67 -7 19 -19
160 -21 223 -3 54 15 108 49 108 67 0 15 -13 10 -45 -16z"/>
<path d="M2089 1431 c-26 -10 -71 -32 -100 -48 -97 -55 -152 -68 -284 -68
-106 0 -130 3 -204 29 -115 39 -170 34 -222 -21 -42 -46 -62 -115 -50 -178 25
-131 179 -283 354 -350 33 -13 47 -23 47 -37 0 -22 18 -60 34 -70 6 -4 23 -8
39 -8 20 0 27 -5 27 -20 0 -11 9 -29 19 -39 27 -27 60 -16 77 25 12 29 19 34
49 34 39 0 67 24 75 66 4 21 17 29 75 49 78 28 160 80 207 134 207 236 189
507 -36 518 -42 2 -75 -3 -107 -16z m51 -30 c0 -30 -26 -46 -55 -33 -32 15
-32 28 3 40 41 15 52 14 52 -7z m-114 -77 c-7 -19 -61 -15 -61 4 0 7 14 20 30
31 29 17 30 17 33 -1 2 -11 1 -26 -2 -34z m-579 14 c38 -14 41 -23 12 -38 -16
-9 -25 -8 -40 6 -18 17 -26 44 -12 44 4 0 22 -5 40 -12z m142 -44 c21 -7 -7
-34 -35 -34 -23 0 -57 36 -48 51 2 4 19 3 37 -2 17 -6 38 -13 46 -15z m341 18
c0 -14 -31 -52 -43 -52 -7 0 -23 8 -37 17 l-24 17 35 12 c40 15 69 17 69 6z
m-230 -34 c0 -16 -30 -48 -46 -48 -14 0 -34 30 -34 49 0 6 18 11 40 11 24 0
40 -5 40 -12z m103 -8 c-9 -35 -31 -45 -53 -25 -32 29 -25 45 19 45 34 0 38
-3 34 -20z m-210 -413 c3 -8 2 -19 -3 -26 -6 -11 -12 -11 -31 -1 -22 12 -22
13 -4 26 24 17 32 18 38 1z m494 -2 c3 -9 -57 -39 -63 -32 -1 1 2 12 7 25 6
16 15 22 31 20 12 -2 23 -8 25 -13z m-402 -36 c9 -27 2 -32 -34 -24 -35 7 -39
19 -13 34 26 16 40 13 47 -10z m312 4 c4 -11 -66 -37 -76 -28 -2 3 4 14 14 25
20 22 56 23 62 3z m-204 -23 c7 -27 -7 -33 -51 -25 l-36 7 24 19 c32 24 56 24
63 -1z m97 0 c0 -16 -7 -20 -30 -20 -32 0 -37 9 -18 28 19 19 48 15 48 -8z
m-140 -46 c30 -3 82 -1 115 4 33 6 62 8 64 6 3 -3 0 -17 -5 -32 -8 -23 -16
-28 -54 -32 -39 -4 -47 -9 -59 -38 -18 -40 -54 -42 -59 -2 -5 35 -21 51 -46
45 -28 -7 -43 4 -52 39 -6 27 -5 29 17 22 13 -4 49 -9 79 -12z"/>
</g>
</svg>
